# xmcd CD database file
#
# Track frame offsets:
#	150
#	55038
#	86086
#	135870
#
# Disc length: 2609 seconds
#
# Revision: 0
# Processed by: cddbd v1.5.2PL0 Copyright (c) Steve Scherf et al.
# Submitted via: CDex 1.93
#
DISCID=270a2f04
DTITLE=Pack Rat's Smokehouse - Men Of The Swamp Live - Disk 2
DYEAR=2018
DGENRE=Blues
TTITLE0=You Don't Have To Go
TTITLE1=Sue City Sue
TTITLE2=Them Creepin' Blues
TTITLE3=Hoo Doo Woman Blues
EXTD=YEAR: 2018
EXTT0=
EXTT1=
EXTT2=
EXTT3=
PLAYORDER=
